<?xml version="1.0" encoding="UTF-8"?>
<svg version="1.1" xmlns="http://www.w3.org/2000/svg" width="200" height="200">
<path d="M0 0 C1.41815506 -0.00956978 1.41815506 -0.00956978 2.86495972 -0.01933289 C3.89710602 -0.02044571 4.92925232 -0.02155853 5.99267578 -0.02270508 C7.05277863 -0.02603348 8.11288147 -0.02936188 9.20510864 -0.03279114 C11.4598141 -0.03786907 13.71452711 -0.0401992 15.96923828 -0.04003906 C19.38863959 -0.04220507 22.80770752 -0.06029437 26.22705078 -0.0793457 C28.41975802 -0.0822837 30.61246678 -0.08426577 32.80517578 -0.08520508 C33.81707977 -0.09239059 34.82898376 -0.09957611 35.87155151 -0.10697937 C47.92012167 -0.06903611 59.85376776 1.41195259 68.73876953 10.32885742 C76.13856945 19.41391197 76.65850187 28.85671065 75.56298828 40.14526367 C73.97772595 47.10333127 69.83299741 51.54140738 64.56298828 56.14526367 C64.98451172 56.54358398 65.40603516 56.9419043 65.84033203 57.35229492 C66.38818359 57.88209961 66.93603516 58.4119043 67.50048828 58.95776367 C68.04576172 59.47983398 68.59103516 60.0019043 69.15283203 60.53979492 C71.57048313 63.29230075 71.68677511 65.93395622 71.67651367 69.43310547 C71.67640038 70.72410408 71.67640038 70.72410408 71.67628479 72.04118347 C71.6711235 72.96627213 71.66596222 73.89136078 71.66064453 74.84448242 C71.65922958 75.79466751 71.65781464 76.7448526 71.65635681 77.72383118 C71.65075703 80.76017396 71.6382046 83.79644315 71.62548828 86.83276367 C71.62047325 88.89070532 71.61591035 90.94864811 71.61181641 93.0065918 C71.60163836 98.05286696 71.58206284 103.09898288 71.56298828 108.14526367 C64.96298828 108.14526367 58.36298828 108.14526367 51.56298828 108.14526367 C51.50240234 105.34155273 51.44181641 102.5378418 51.37939453 99.64916992 C51.31765454 96.94528367 51.25424641 94.24144136 51.19067383 91.53759766 C51.14725895 89.65287149 51.10558885 87.76810432 51.06567383 85.88330078 C51.00812935 83.18013119 50.94439024 80.47716931 50.87939453 77.77416992 C50.86268204 76.92625381 50.84596954 76.07833771 50.82875061 75.20472717 C51.09889633 71.36234291 51.09889633 71.36234291 49.56298828 68.14526367 C47.04442653 67.98539422 44.54934654 67.88584474 42.02783203 67.82885742 C41.36046021 67.8102063 40.69308838 67.79155518 40.00549316 67.77233887 C37.50396412 67.70385627 35.00220946 67.6438258 32.50048828 67.58276367 C26.91111328 67.43838867 21.32173828 67.29401367 15.56298828 67.14526367 C15.56298828 80.67526367 15.56298828 94.20526367 15.56298828 108.14526367 C8.63298828 108.14526367 1.70298828 108.14526367 -5.43701172 108.14526367 C-5.45956 94.21146748 -5.47792521 80.2776833 -5.48882389 66.34387302 C-5.4940534 59.87458687 -5.50115228 53.40531379 -5.51245117 46.93603516 C-5.52327764 40.69856067 -5.52928804 34.4610988 -5.53188896 28.22361565 C-5.53374365 25.8380609 -5.53736508 23.45250688 -5.54274178 21.06695747 C-5.54994901 17.73830776 -5.55100279 14.40971088 -5.55053711 11.08105469 C-5.55413239 10.08412094 -5.55772766 9.08718719 -5.56143188 8.06004333 C-5.56005722 7.15835419 -5.55868256 6.25666504 -5.55726624 5.32765198 C-5.55818803 4.53951898 -5.55910982 3.75138597 -5.56005955 2.93937016 C-5.31270899 -0.6671399 -3.08656949 0.01408891 0 0 Z M15.56298828 18.14526367 C15.56298828 28.37526367 15.56298828 38.60526367 15.56298828 49.14526367 C20.22423828 49.20713867 24.88548828 49.26901367 29.68798828 49.33276367 C31.14736816 49.36007568 32.60674805 49.3873877 34.11035156 49.41552734 C35.85421143 49.42676636 35.85421143 49.42676636 37.63330078 49.43823242 C38.81682129 49.45394287 40.0003418 49.46965332 41.21972656 49.48583984 C46.26722415 48.97165413 49.48938692 47.33493005 52.87548828 43.58276367 C56.3100251 38.62176604 56.15747638 34.06502548 55.56298828 28.14526367 C53.22460921 23.19869257 50.28001313 20.81137779 45.56298828 18.14526367 C42.09168785 17.60016999 42.09168785 17.60016999 38.41455078 17.75463867 C36.60978271 17.76962402 36.60978271 17.76962402 34.76855469 17.78491211 C33.25696777 17.82132813 31.74538086 17.85774414 30.18798828 17.89526367 C22.94861328 18.01901367 22.94861328 18.01901367 15.56298828 18.14526367 Z " fill="#000000" transform="translate(9.43701171875,44.854736328125)"/>
<path d="M0 0 C16.17 0 32.34 0 49 0 C49 5.94 49 11.88 49 18 C45.37 18 41.74 18 38 18 C38.00888245 18.77292892 38.01776489 19.54585785 38.0269165 20.34220886 C38.10757931 27.68148015 38.16822383 35.02053185 38.20724869 42.36013317 C38.22798734 46.13212927 38.25604797 49.90375442 38.30175781 53.67553711 C38.34571327 57.32604345 38.3692398 60.97619653 38.37950897 64.6269474 C38.38681247 66.00901146 38.40107 67.39105958 38.42292023 68.7729702 C38.59570507 80.1700296 37.47106667 92.15401286 29.91015625 101.28125 C20.17660465 110.03945593 9.55081198 110.55143735 -2.85058594 110.140625 C-12.43132152 109.51380722 -19.63964885 105.0298618 -26 98 C-34.04787759 88.29520643 -33.30688974 75.86640343 -33 64 C-26.4 64 -19.8 64 -13 64 C-12.896875 66.145 -12.79375 68.29 -12.6875 70.5 C-12.14579835 77.85378541 -11.38536387 83.12533072 -6.5625 88.9375 C-2.21679284 92.4352643 1.47122912 92.38129454 7 92 C10.99880456 90.61579842 12.57737711 89.68494054 14.8125 86.0625 C16.57481137 81.51759173 17.13460925 77.8355887 17.20532227 72.94628906 C17.22526749 71.72532532 17.24521271 70.50436157 17.26576233 69.24639893 C17.28247482 67.93274353 17.29918732 66.61908813 17.31640625 65.265625 C17.33698919 63.90370064 17.35798601 62.54178248 17.37937927 61.17987061 C17.43446165 57.60265128 17.48393164 54.02537562 17.53222656 50.44805908 C17.58254289 46.79474906 17.63817597 43.14152042 17.69335938 39.48828125 C17.80077165 32.32558794 17.90176226 25.16282609 18 18 C12.06 18 6.12 18 0 18 C0 12.06 0 6.12 0 0 Z " fill="#000000" transform="translate(123,45)"/>
<path d="M0 0 C3.19064619 1.72467361 4.97858607 3.16514473 7.00390625 6.203125 C8.30362676 12.20183503 8.26008954 15.74114012 5.00390625 21.203125 C1.43999784 24.6779357 -1.59182604 25.52925045 -6.43359375 25.828125 C-11.51076151 25.65496102 -14.14746688 24.30287113 -17.75390625 20.80859375 C-20.22147573 17.61937659 -20.3384132 14.19304508 -20.2734375 10.265625 C-19.80446895 6.77808427 -18.29013174 4.7990101 -15.99609375 2.203125 C-11.04979929 -1.1693485 -5.62462305 -2.24544638 0 0 Z " fill="#000000" transform="translate(190.99609375,129.796875)"/>
</svg>
