<?xml version="1.0" encoding="UTF-8"?>
<svg version="1.1" xmlns="http://www.w3.org/2000/svg" width="250" height="250">
<path d="M0 0 C7.70057297 -0.05117739 15.40110125 -0.0859317 23.10180664 -0.10986328 C25.71543008 -0.11985186 28.32904255 -0.13344734 30.94262695 -0.15087891 C74.30176679 -0.43259317 74.30176679 -0.43259317 88.5 12.75 C96.12593067 20.86555704 98.30552845 30.14198457 98.14453125 41.03125 C97.66289712 50.92427541 95.57103645 58.61802587 88.2734375 65.66796875 C86.89440367 66.83459216 85.45330768 67.92732052 84 69 C84.39832031 69.43570313 84.79664062 69.87140625 85.20703125 70.3203125 C85.73683594 70.91585937 86.26664062 71.51140625 86.8125 72.125 C87.33457031 72.70507812 87.85664062 73.28515625 88.39453125 73.8828125 C93.37751615 80.45404807 93.40454505 85.98774969 93.29296875 93.9609375 C93.28872391 95.10664215 93.28447906 96.2523468 93.28010559 97.43276978 C93.2633564 101.08042215 93.22570991 104.72751551 93.1875 108.375 C93.17244836 110.85285659 93.15876079 113.33072186 93.14648438 115.80859375 C93.11346512 121.87258552 93.06330259 127.93625281 93 134 C89.47843642 135.76078179 85.44108049 135.184646 81.5625 135.1875 C80.69044922 135.19974609 79.81839844 135.21199219 78.91992188 135.22460938 C77.66211914 135.22750977 77.66211914 135.22750977 76.37890625 135.23046875 C75.6113501 135.23457764 74.84379395 135.23868652 74.05297852 135.24291992 C72 135 72 135 69 133 C68.60127258 130.89926147 68.60127258 130.89926147 68.56762695 128.27490234 C68.54783279 127.29403656 68.52803864 126.31317078 68.50764465 125.30258179 C68.50125473 124.24108917 68.49486481 123.17959656 68.48828125 122.0859375 C68.47033005 121.00116119 68.45237885 119.91638489 68.43388367 118.79873657 C68.3795769 115.32419761 68.34581932 111.84979758 68.3125 108.375 C68.27934496 106.02341808 68.24485702 103.67185454 68.20898438 101.3203125 C68.12132238 95.54685274 68.06142593 89.77403776 68 84 C53.15 83.67 38.3 83.34 23 83 C23 99.83 23 116.66 23 134 C20.62384014 135.18807993 19.1488258 135.12914522 16.5 135.1328125 C15.1696875 135.13474609 15.1696875 135.13474609 13.8125 135.13671875 C12.884375 135.13285156 11.95625 135.12898437 11 135.125 C10.071875 135.12886719 9.14375 135.13273438 8.1875 135.13671875 C7.300625 135.13542969 6.41375 135.13414062 5.5 135.1328125 C4.6853125 135.13168457 3.870625 135.13055664 3.03125 135.12939453 C1 135 1 135 -1 134 C-1.02333679 116.82388103 -1.04098302 99.647767 -1.05181217 82.47163582 C-1.05697347 74.49687292 -1.06401301 66.52211986 -1.07543945 58.54736328 C-1.08539136 51.59841781 -1.09185464 44.64947947 -1.09408849 37.70052707 C-1.09539474 34.01944973 -1.09847515 30.33839276 -1.10573006 26.65732193 C-1.11375398 22.55295143 -1.11399081 18.4486166 -1.11352539 14.34423828 C-1.1189183 12.50357788 -1.1189183 12.50357788 -1.12442017 10.62573242 C-1.1230455 9.51231476 -1.12167084 8.39889709 -1.12025452 7.2517395 C-1.12117631 6.2801697 -1.1220981 5.30859989 -1.12304783 4.30758858 C-1 2 -1 2 0 0 Z M23 22 C23 34.87 23 47.74 23 61 C28.795625 61.04125 34.59125 61.0825 40.5625 61.125 C42.3782251 61.14320801 44.1939502 61.16141602 46.06469727 61.18017578 C47.52359726 61.18602371 48.98250056 61.19111856 50.44140625 61.1953125 C51.55364563 61.2106604 51.55364563 61.2106604 52.68835449 61.22631836 C59.38153551 61.22853428 65.5766442 60.31541163 70.70703125 55.59765625 C74.58705491 50.80330677 75.26412707 45.31427238 74.9375 39.3125 C74.34378888 34.64762695 73.09333756 31.63922066 70 28 C69.525625 27.4225 69.05125 26.845 68.5625 26.25 C62.85174036 21.68139229 55.1575758 21.85010415 48.1953125 21.90234375 C47.23129517 21.90385437 47.23129517 21.90385437 46.24780273 21.90539551 C43.8735167 21.91058199 41.49925634 21.92454284 39.125 21.9375 C31.143125 21.9684375 31.143125 21.9684375 23 22 Z " fill="#000000" transform="translate(8,67)"/>
<path d="M0 0 C19.14 0 38.28 0 58 0 C58 7.26 58 14.52 58 22 C53.71 22 49.42 22 45 22 C45.00444122 22.93801453 45.00888245 23.87602905 45.01345825 24.84246826 C45.05418459 33.7272657 45.08407033 42.61204394 45.10362434 51.49691391 C45.11401552 56.06357495 45.12808842 60.63016001 45.15087891 65.19677734 C45.17277504 69.61234524 45.18460362 74.02784052 45.18975449 78.44345856 C45.19342038 80.1193684 45.20057799 81.79527474 45.21146011 83.47115326 C45.30953557 99.21608379 44.89459431 113.63218096 34.11328125 126.19921875 C22.66777518 136.90181165 10.16675569 137.58545866 -4.68798828 137.13183594 C-15.05514451 136.54067814 -24.34627015 131.14576334 -31.375 123.6875 C-34.90321821 119.46217416 -37.17680338 115.17174092 -39 110 C-39.51336914 108.63307007 -39.51336914 108.63307007 -40.03710938 107.23852539 C-41.01705882 103.94262545 -41.23061646 101.36979697 -41.1953125 97.9453125 C-41.18886719 96.83671875 -41.18242188 95.728125 -41.17578125 94.5859375 C-41.15902344 93.44382812 -41.14226562 92.30171875 -41.125 91.125 C-41.11597656 89.9596875 -41.10695313 88.794375 -41.09765625 87.59375 C-41.07417432 84.72895423 -41.04133141 81.86458465 -41 79 C-37.35418313 78.97112488 -33.70839537 78.95324415 -30.0625 78.9375 C-28.50112305 78.92493164 -28.50112305 78.92493164 -26.90820312 78.91210938 C-25.42416992 78.90727539 -25.42416992 78.90727539 -23.91015625 78.90234375 C-22.99371338 78.89710693 -22.07727051 78.89187012 -21.13305664 78.88647461 C-19 79 -19 79 -18 80 C-17.90477909 81.97636289 -17.81577513 83.95325561 -17.76098633 85.93115234 C-17.6109903 99.20988245 -17.6109903 99.20988245 -11.5078125 110.515625 C-5.06626725 115.06636841 2.46110789 114.60727554 10 114 C15.50822625 111.62576455 17.51620048 108.24357677 20 103 C21.09504267 98.84045058 21.16980094 94.73086291 21.20532227 90.45581055 C21.21522186 89.71380905 21.22512146 88.97180756 21.23532104 88.20732117 C21.26678034 85.76715225 21.29163154 83.32696391 21.31640625 80.88671875 C21.33698924 79.18992115 21.35798606 77.49312852 21.37937927 75.79634094 C21.43446104 71.33958982 21.48393136 66.8827935 21.53222656 62.42596436 C21.5825433 57.87443031 21.63817617 53.32296156 21.69335938 48.77148438 C21.80077089 39.8477121 21.90225334 30.92388301 22 22 C21.3387915 22.00523682 20.67758301 22.01047363 19.99633789 22.01586914 C17.01840149 22.03657656 14.04048018 22.04964012 11.0625 22.0625 C9.50112305 22.07506836 9.50112305 22.07506836 7.90820312 22.08789062 C6.42416992 22.09272461 6.42416992 22.09272461 4.91015625 22.09765625 C3.53549194 22.10551147 3.53549194 22.10551147 2.13305664 22.11352539 C0 22 0 22 -1 21 C-1.09862603 19.60825641 -1.1307898 18.21163857 -1.1328125 16.81640625 C-1.13410156 15.97142578 -1.13539063 15.12644531 -1.13671875 14.25585938 C-1.13285156 13.36705078 -1.12898438 12.47824219 -1.125 11.5625 C-1.13080078 10.23508789 -1.13080078 10.23508789 -1.13671875 8.88085938 C-1.13542969 8.03458984 -1.13414062 7.18832031 -1.1328125 6.31640625 C-1.13168457 5.53724854 -1.13055664 4.75809082 -1.12939453 3.95532227 C-1 2 -1 2 0 0 Z " fill="#000000" transform="translate(155,67)"/>
<path d="M0 0 C3.46385119 2.81703868 5.96674644 5.23904564 6.48828125 9.78125 C6.62078627 21.26943563 6.62078627 21.26943563 2.15234375 25.85546875 C-1.54755098 29.28463947 -4.42689115 30.15516624 -9.34765625 30.35546875 C-14.26555727 30.16195568 -17.11326642 29.22552786 -20.84765625 25.85546875 C-24.84818604 21.42244925 -26.23251014 18.09678477 -26.12109375 12.046875 C-25.55006583 7.47049409 -23.80056924 3.42776761 -20.1640625 0.5 C-13.44210466 -3.50426306 -6.85390197 -4.24565175 0 0 Z " fill="#000000" transform="translate(239.84765625,174.14453125)"/>
</svg>
